<?xml version="1.0" encoding="UTF-8" standalone="no"?>
<!DOCTYPE svg PUBLIC "-//W3C//DTD SVG 1.1//EN" "http://www.w3.org/Graphics/SVG/1.1/DTD/svg11.dtd">
<svg width="100%" height="100%" viewBox="0 0 2048 2048" version="1.1" xmlns="http://www.w3.org/2000/svg" xmlns:xlink="http://www.w3.org/1999/xlink" xml:space="preserve" xmlns:serif="http://www.serif.com/" style="fill-rule:evenodd;clip-rule:evenodd;stroke-linecap:round;stroke-linejoin:round;stroke-miterlimit:1.5;">
    <g>
        <g id="Слой2">
            <g>
                <path d="M728.953,1377.98C729.1,1378.66 728.42,1376.2 727.725,1376.28C720.388,1377.09 713.545,1378.19 706.076,1378.19C690.618,1378.19 679.654,1375.14 664.32,1376.16C605.427,1380.09 547.637,1375.28 488.488,1375.28C474.27,1375.28 447.499,1387.72 434.183,1383.28C432.38,1382.68 421.788,1378.65 421.448,1378.82C418.364,1380.37 415.87,1425.85 415.081,1432.95C411.132,1468.49 404.196,1504.4 400.951,1540.11C398.696,1564.9 394.532,1592.28 389.101,1616.71C387.942,1621.93 386.785,1661.68 384.517,1662.81C379.412,1665.37 374.091,1660.33 369.235,1661.54C354.88,1665.13 296.397,1706.25 306.197,1725.85C310.208,1733.87 336.44,1734.68 343.092,1733.85C370.223,1730.46 386.08,1727.76 413.171,1727.76C458.187,1727.76 503.24,1723.38 548.162,1727.12C569.587,1728.91 584.482,1728 605.759,1731.04C629.51,1734.43 664.062,1729.91 687.878,1732.88C696.818,1734 777.938,1731.04 782.486,1726.49C782.803,1726.17 782.486,1723.8 782.486,1723.31C782.486,1708.07 787.162,1691.1 787.162,1675.88C787.162,1646.8 786.44,1618.85 792.037,1590.86C794.099,1580.55 791.416,1569.15 793.947,1559.02C795.958,1550.98 793.129,1508.17 799.678,1504.9C808.02,1500.73 829.839,1555.9 832.789,1564.75C836.731,1576.58 846.051,1585.81 850.618,1597.23C861.6,1624.68 873.639,1652.19 886.913,1678.73C892.513,1689.93 901.95,1700.09 906.652,1711.84C914.207,1730.73 919.392,1758.97 932.759,1772.34C939.334,1778.91 968.067,1758.5 977.331,1753.87C1002.73,1741.17 1032.14,1736.38 1058.2,1725.22C1067.75,1721.12 1114.48,1695.29 1120.6,1695.29" style="fill:rgb(255,195,110);stroke:rgb(255,195,110);stroke-width:11.32px;"/>
                <path d="M1094.77,1711.16C1099.79,1709.69 1184.33,1677.2 1186.91,1674.61C1188.12,1673.41 1183.52,1674.61 1181.82,1674.61C1175.06,1674.61 1167.58,1677.61 1161.44,1680.34C1146.66,1686.91 1147.21,1692.4 1161.44,1686.07C1193.84,1671.67 1227.14,1660.46 1259.5,1646.59C1265.72,1643.93 1286.14,1638.53 1288.8,1633.22C1291.36,1628.1 1282.72,1619.56 1281.15,1615.39C1272.01,1591.01 1260.72,1568.35 1250.59,1544.71C1231.06,1499.13 1209.34,1454.03 1192.01,1407.81C1185.88,1391.46 1174.63,1377.24 1167.81,1361.33C1157,1336.11 1150.37,1308.62 1138.52,1284.92C1137.83,1283.54 1135.49,1284.39 1134.7,1284.92C1124.19,1291.92 1110.64,1298.42 1098.41,1301.47C1094.41,1302.47 1090.71,1303.68 1086.94,1305.3C1071.31,1312 1053.72,1314.01 1037.91,1319.94C996.258,1335.56 942.648,1347.58 901.807,1365.08C885.256,1372.18 848.185,1390.78 832.245,1386.8C822.504,1384.36 815.987,1373.73 809.322,1367.06C795.116,1352.85 763.429,1343.19 744.374,1347.96C741.375,1348.71 735.748,1347.67 733.549,1349.87C730.211,1353.2 742.498,1368.63 743.737,1371.52C752.722,1392.48 764.077,1412.14 770.48,1434.56" style="fill:rgb(255,195,110);stroke:rgb(255,195,110);stroke-width:11.32px;"/>
                <path d="M677.223,399.716C678.202,400.344 675.723,401.52 675.203,402.56C673.374,406.217 672.003,410.672 670.824,414.6C667.223,426.605 665.53,439.238 661.521,451.266C657.867,462.229 659.828,477.003 658.785,488.48C656.504,513.573 648.811,539.111 651.123,564.548C655.081,608.084 658.716,651.904 672.466,693.153C674.417,699.005 678.733,704.291 680.675,710.118C684.33,721.082 687.855,735.22 693.809,745.143C710.43,772.844 729.34,794.892 749.082,819.57C767.211,842.231 792.469,864.248 818.036,877.031C832.617,884.322 832.861,852.759 835.549,842.007C839.703,825.388 840.372,808.038 843.757,791.112C846.041,779.697 841.842,767.034 843.757,755.541C846.176,741.026 847.506,723.225 845.399,708.477C843.814,697.378 843.069,664.573 846.494,654.298C846.838,653.267 847.936,650.881 849.777,652.109C857.532,657.279 855.544,668.274 861.27,673.999C865.74,678.469 893.36,705.891 896.294,711.76C899.809,718.79 914.478,714.745 917.09,719.969C919.972,725.734 917.995,734.891 919.279,741.312C922.848,759.16 927.921,783.299 939.527,798.774C956.381,821.246 974.605,867.127 1007.93,833.798C1017.4,824.328 1026.62,813.466 1036.39,803.699C1041.02,799.068 1044.37,793.528 1047.88,790.018C1048.71,789.192 1050.62,787.829 1050.62,787.829L1046.79,787.829C1040.42,787.829 1036.41,791.665 1029.83,789.47C1014.74,784.441 1008.31,771.783 997.536,761.013C976.209,739.686 979.897,675.982 983.855,648.278C987.07,625.775 1003.9,579.27 1021.62,565.095C1032.86,556.102 1052.43,550.992 1065.94,546.489C1070.59,544.941 1075.56,543.101 1080.17,541.563C1085.5,539.788 1101.27,547.281 1105.35,543.205C1106.34,542.208 1102.61,505.261 1102.61,501.066C1102.61,462.457 1087.27,421.672 1075.25,385.595C1072.2,376.456 1068.52,354.049 1059.38,349.477C1040.67,340.122 1003.61,386.051 995.347,399.824C982.959,420.471 975.928,420.901 975.646,420.62C972.981,417.955 974.768,403.644 974.004,399.824C971.326,386.434 963.503,368.276 956.492,356.591C925.699,305.27 903.727,244.174 861.817,202.265C855.468,195.916 843.079,216.586 841.568,219.23C828.359,242.346 819.556,267.878 813.111,293.656C799.089,349.747 789.579,407.638 789.579,466.042C789.579,481.113 792.863,496.048 792.863,510.917C792.863,512.35 794.004,524.302 793.41,524.599C790.542,526.033 778.378,512.047 776.992,509.275C765.712,486.715 753.119,466.984 737.042,446.888C726.785,434.066 709.661,427.168 698.187,415.695C693.101,410.608 688.465,402.93 682.864,398.73C682.039,398.11 680.675,396.541 680.675,396.541C680.675,396.541 682.805,397.635 683.959,397.635" style="fill:rgb(102,204,165);stroke:rgb(102,204,165);stroke-width:11.32px;"/>
                <g id="Слой3">
                    <path d="M1135.47,871.105C1130.18,864.021 1121.36,884.179 1116.51,889.031C1101.87,903.667 1090.52,911.155 1070.51,907.153C1062.88,905.628 1035.48,880.717 1030.65,874.688C1024.4,866.878 1012.43,854.763 1002.9,849.998C997.149,847.125 985.897,854.266 978.501,852.786C964.048,849.896 957.269,837.64 945.742,831.876C941.467,829.739 861.385,854.658 851.647,861.151C839.93,868.962 847.425,886.966 837.01,893.91C835.514,894.907 833.659,895.934 832.131,896.698C830.647,897.44 829.556,896.214 828.646,895.304C819.045,885.703 814.773,888.131 810.524,900.88C806.295,913.566 820.613,928.359 824.464,939.912C831.869,962.128 834.222,1001.19 834.222,1024.95C834.222,1039.32 829.528,1143.11 832.828,1149.71C835.134,1154.32 897.923,1150.01 908.104,1148.32C919.725,1146.38 932.266,1149.84 943.651,1151.1C964.734,1153.45 986.516,1148.63 1007.77,1150.41C1031.47,1152.38 1057.81,1154.18 1081.66,1151.8C1093.52,1150.62 1137.9,1145.77 1148.57,1151.1C1155.31,1154.47 1145.59,1232.22 1142.99,1245.2C1142.35,1248.41 1135.81,1267.29 1138.81,1270.29C1140.24,1271.72 1143.52,1268.9 1144.39,1268.2C1155.15,1259.59 1165.1,1249.04 1179.24,1245.9C1188.28,1243.89 1197.48,1242.31 1206.42,1240.32C1210.44,1239.43 1214.34,1238.65 1218.27,1237.53C1219.27,1237.25 1221.99,1236.6 1221.06,1236.14C1210.76,1230.99 1182.7,1248.3 1174.36,1254.26C1169.84,1257.49 1165.39,1260.84 1160.42,1263.32C1159.65,1263.71 1153.9,1265.98 1154.15,1266.11C1163.69,1270.88 1203.91,1251.46 1215.48,1247.99C1249.51,1237.78 1284.48,1222.12 1317.94,1209.95C1336.63,1203.15 1356.12,1200.68 1375.79,1197.11C1430.9,1187.09 1473.37,1178.98 1529.83,1178.98C1532.37,1178.98 1586.2,1179.07 1587.68,1177.59C1594.97,1170.3 1590.01,1127.42 1586.98,1118.34C1580.84,1099.9 1578.67,1088.55 1576.57,1069.68C1574.05,1046.98 1565.85,1007.07 1555.62,986.611C1545.32,966.004 1534.58,945.224 1524.25,924.578C1520.92,917.904 1522.09,909.54 1517.98,902.971C1515.36,898.775 1498.51,870.066 1495.28,866.032C1451.05,810.743 1417.41,793.541 1339.55,793.541C1320.32,793.541 1290.01,788.697 1273.33,799.814C1261.81,807.496 1250.79,862.724 1228.73,879.273C1216.22,888.652 1184.36,919.474 1166.69,910.638C1157.49,906.038 1144.53,894.792 1138.12,886.243C1135.82,883.176 1127.28,866.009 1132.54,869.515" style="fill:rgb(249,182,237);stroke:rgb(249,182,237);stroke-width:11.32px;"/>
                    <path d="M1467.77,1571.6C1470.38,1566.16 1499.69,1555.45 1506.35,1554.03C1538.18,1547.21 1566.44,1526.81 1596.52,1515.53C1600.95,1513.87 1622.56,1499.18 1623.42,1499.18C1625.64,1499.18 1621.68,1503.32 1621.31,1505.51C1620.37,1511.14 1620.02,1517.71 1619.73,1523.44C1619.15,1534.95 1621.31,1547.95 1621.31,1558.25L1621.31,1559.3C1616.62,1564 1598.99,1560.3 1593.36,1559.83C1575.82,1558.37 1558,1559.57 1540.62,1562.47C1517.24,1566.37 1494.76,1569.32 1471.01,1569.32" style="fill:rgb(249,182,237);stroke:rgb(249,182,237);stroke-width:11.32px;"/>
                </g>
            </g>
        </g>
        <g>
            <path d="M1336.5,1623.19C1337.37,1622.95 1358.31,1721.72 1358.31,1721.72L1782.66,1721.43C1782.66,1721.43 1782.91,1692.13 1769.93,1672.45C1745.38,1635.21 1697.93,1608.37 1627.47,1592.28L1623.46,1491.41" style="fill:none;stroke:black;stroke-width:11.32px;"/>
            <path d="M819.747,1269.79C819.747,1269.79 914.238,1210.79 956.39,1245.74C998.541,1280.69 964.919,1334.5 964.919,1334.5" style="fill:none;stroke:black;stroke-width:11.32px;"/>
            <g transform="matrix(1,0,0,1,2.73064,1.63707)">
                <path d="M1015.49,730.228C1015.49,730.228 1030.28,749.49 1043.05,729.775" style="fill:none;stroke:black;stroke-width:11.32px;"/>
            </g>
            <path d="M1192.31,717.648C1192.31,717.648 1211.28,660.141 1211.52,659.288" style="fill:none;stroke:black;stroke-width:11.32px;"/>
            <path d="M1061.09,591.903C1061.09,591.903 1044.09,626.7 995.799,638.949" style="fill:none;stroke:black;stroke-width:11.32px;"/>
            <path d="M1192.85,820.719C1192.85,820.719 1380.78,728.757 1486.76,850.633C1592.75,972.509 1592.62,1182.12 1594.39,1183.09" style="fill:none;stroke:black;stroke-width:11.32px;"/>
            <path d="M972.817,850.892C972.817,850.892 914.771,796.524 911.537,727.035" style="fill:none;stroke:black;stroke-width:11.32px;"/>
            <path d="M849.463,667.792C869.406,695.713 883.637,708.869 907.417,730.027C907.417,730.027 1105.42,471.666 860.994,189.082C860.994,189.082 767.716,281.468 793.504,516.381" style="fill:none;stroke:black;stroke-width:11.32px;"/>
            <path d="M825.249,1157.09C825.249,1157.09 1144.9,1156.28 1143.92,1157.62C1142.94,1158.96 1133.01,1275.74 1132.15,1278.03" style="fill:none;stroke:black;stroke-width:11.32px;"/>
            <path d="M1290.33,1025.73L1302.4,1220.81" style="fill:none;stroke:black;stroke-width:11.41px;"/>
            <path d="M416.211,1374.45L729.528,1371.63" style="fill:none;stroke:black;stroke-width:11.36px;"/>
            <path d="M1140.37,1277.75L1293.93,1634.23" style="fill:none;stroke:black;stroke-width:11.31px;"/>
            <g id="Слой1">
                <path d="M813.813,1364.62C822.657,1239.04 825.328,1168.33 828.395,1094.38C835.067,933.524 796.129,810.53 651.44,818.043C497.039,826.059 453.979,1058.08 426.413,1277.92C401.409,1477.33 382.068,1649.53 378.683,1650.81C371.567,1653.51 301.527,1675.72 303.712,1735.58C303.712,1735.58 578.654,1734.98 785.106,1734.21C785.106,1734.21 790.658,1647.37 800.487,1510.28" style="fill:none;stroke:black;stroke-width:11.41px;"/>
                <g transform="matrix(0.438406,0.898777,-0.898777,0.438406,2149.77,316.308)">
                    <path d="M786.103,1734.94C784.643,1736.81 822.514,1236.16 828.395,1094.38C835.067,933.524 796.129,810.53 651.44,818.043C497.039,826.059 453.979,1058.08 426.413,1277.92C401.409,1477.33 382.068,1649.53 378.683,1650.81C371.567,1653.51 301.527,1675.72 303.712,1735.58L786.103,1734.94Z" style="fill:none;stroke:black;stroke-width:11.41px;"/>
                </g>
            </g>
            <path d="M1125.53,547.563C1125.53,547.563 996.186,525.423 991.22,666.226C986.707,794.165 1024.06,791.28 1110.88,768.859" style="fill:none;stroke:black;stroke-width:11.31px;"/>
            <path d="M1081.98,779.087L1081.19,838.413C1081.19,838.413 1100.79,859.904 1138.42,857.37C1176.05,854.835 1189.9,823.172 1189.9,823.172L1189.45,744.247C1189.45,744.247 1268.15,734.39 1258.3,675.903C1249.7,624.881 1185.26,641.222 1185.26,641.222L1213.17,638.266C1213.17,638.266 1222.2,581.322 1151.04,552.238" style="fill:none;stroke:black;stroke-width:11.36px;"/>
            <path d="M1150.07,552.094C1150.07,552.094 1150.77,519.003 1192.07,512.773C1233.38,506.543 1280.42,558.944 1361.52,532.399C1442.61,505.854 1433.11,460.591 1467.58,446.991C1499.87,434.25 1527.14,460.305 1566.29,448.736C1605.43,437.166 1611.22,376.551 1602.22,351.908C1593.22,327.265 1576.42,304.1 1541.57,305.506C1506.72,306.913 1498.55,331.698 1475.12,337.181C1451.7,342.665 1421.71,325.054 1385.19,347.61C1333.54,379.512 1363.25,438.497 1288.71,465.052C1214.16,491.608 1181.27,472.288 1151.61,496.772C1133.5,511.733 1125.7,546.411 1125.7,546.411" style="fill:none;stroke:black;stroke-width:11.32px;"/>
            <path d="M674.098,388.801L912.787,1153.66" style="fill:none;stroke:black;stroke-width:11.32px;"/>
            <path d="M862.981,199.323L943.188,1155.63" style="fill:none;stroke:black;stroke-width:11.32px;"/>
            <path d="M913.646,980.472L880.206,1154.51" style="fill:none;stroke:black;stroke-width:11.32px;"/>
            <path d="M1056.31,345.55L1010.79,592.626" style="fill:none;stroke:black;stroke-width:11.32px;"/>
            <path d="M990.676,680.306L947.904,1152.84" style="fill:none;stroke:black;stroke-width:11.32px;"/>
            <path d="M830.937,888.102C830.937,888.102 877.418,757.394 837.574,614.235C815.111,533.527 748.363,444.631 671.78,383.365C671.78,383.365 548.362,729.051 830.937,888.102Z" style="fill:none;stroke:black;stroke-width:11.32px;"/>
            <path d="M976.708,850.773C976.708,850.773 1021.77,848.934 1058.52,783.224" style="fill:none;stroke:black;stroke-width:11.32px;"/>
            <path d="M978.953,411.234C978.953,411.234 1025.18,336.052 1057.32,341.459C1078.19,344.971 1115.42,480.555 1110.16,544.022" style="fill:none;stroke:black;stroke-width:11.32px;"/>
            <path d="M1061.13,592.101C1061.13,592.101 1096.69,702.27 1184.34,641.616" style="fill:none;stroke:black;stroke-width:11.32px;"/>
            <path d="M1080.17,838.209C1080.17,838.209 1054.69,829.216 1027.54,824.906" style="fill:none;stroke:black;stroke-width:11.32px;"/>
            <path d="M949.621,824.268C918.712,828.676 874.255,840.785 841.485,859.132" style="fill:none;stroke:black;stroke-width:11.32px;"/>
            <path d="M815.551,880.068C810.506,884.047 805.387,890.81 800.371,895.288" style="fill:none;stroke:black;stroke-width:11.32px;"/>
            <path d="M792,1353.12L771.516,1372.38" style="fill:none;stroke:black;stroke-width:11.32px;"/>
            <path d="M810.842,1366.94L786.987,1389.4" style="fill:none;stroke:black;stroke-width:11.32px;"/>
            <path d="M334.486,1681.51L336.863,1704.91" style="fill:none;stroke:black;stroke-width:11.32px;"/>
            <path d="M357.999,1664.38L363.299,1694.54" style="fill:none;stroke:black;stroke-width:11.32px;"/>
            <path d="M1129.98,862.15C1129.98,862.15 1179.1,983.947 1268.16,796.815" style="fill:none;stroke:black;stroke-width:11.32px;"/>
            <path d="M1128.25,865.528C1123.76,872.087 1109.21,899.578 1083.11,899.276C1064.81,899.065 1042.14,883.239 1005.04,840.031" style="fill:none;stroke:black;stroke-width:11.32px;"/>
            <path d="M1199.93,700.089L1222.72,682.999" style="fill:none;stroke:black;stroke-width:11.32px;"/>
            <path d="M994.27,659.619C994.27,659.619 1026.23,650.458 1028.33,667.419C1030.46,684.659 1030.51,706.212 1030.51,706.212" style="fill:none;stroke:black;stroke-width:11.32px;"/>
            <path d="M924.757,1235.71L835.682,1309.61" style="fill:none;stroke:black;stroke-width:11.32px;"/>
            <path d="M956.797,1249.77L858.226,1337.94" style="fill:none;stroke:black;stroke-width:11.32px;"/>
            <path d="M974.498,1276.27L883.366,1357.34" style="fill:none;stroke:black;stroke-width:11.32px;"/>
            <path d="M1486.19,1677.61C1486.19,1677.61 1649.72,1668.93 1656.36,1720.85" style="fill:none;stroke:black;stroke-width:11.32px;"/>
            <path d="M1564.04,1653.38C1564.04,1653.38 1713.91,1653.5 1716.97,1720.26" style="fill:none;stroke:black;stroke-width:11.32px;"/>
            <path d="M1588.32,1622.62C1588.32,1622.62 1744.62,1629.41 1751.94,1720.04" style="fill:none;stroke:black;stroke-width:11.32px;"/>
            <path d="M1441.53,1578.36C1441.53,1578.36 1624.04,1562.91 1624.03,1563.18" style="fill:none;stroke:black;stroke-width:11.32px;"/>
        </g>
    </g>
</svg>
