<?xml version="1.0" encoding="UTF-8" standalone="no"?>
<!DOCTYPE svg PUBLIC "-//W3C//DTD SVG 1.1//EN" "http://www.w3.org/Graphics/SVG/1.1/DTD/svg11.dtd">
<svg width="100%" height="100%" viewBox="0 0 2048 2048" version="1.1" xmlns="http://www.w3.org/2000/svg" xmlns:xlink="http://www.w3.org/1999/xlink" xml:space="preserve" xmlns:serif="http://www.serif.com/" style="fill-rule:evenodd;clip-rule:evenodd;stroke-linecap:round;stroke-linejoin:round;stroke-miterlimit:1.5;">
    <g id="Слой1">
        <g id="Слой2">
            <path d="M539.976,1097.26C537.918,1094.21 524.82,1098.73 520.113,1098.73C500.959,1098.73 481.57,1094.31 462.641,1092.41C396.598,1085.81 336.18,1074.94 300.33,1012.21C278.058,973.232 292.364,915.646 329.382,882.105C344.22,868.661 365.869,860.483 389.332,857.876C397.69,856.947 407.127,856.783 414.191,853.251C415.257,852.718 414.919,863.888 422.561,849.317C423.875,846.813 435.411,852.957 433.589,850.527C429.729,845.381 424.162,841.608 420.958,836.001C420.582,835.342 420.072,834.766 419.695,834.107C419.228,833.289 419.035,832.304 418.432,831.581C401.764,811.579 357.932,755.223 353.728,729.997C349.126,702.386 366.905,645.52 401.233,641.229C415.959,639.389 434.125,640.705 445.663,636.859C446.494,636.582 445.105,637.974 445.663,636.859C456.475,615.235 426.665,534.101 469.743,515.639C498.416,503.35 532.547,512.874 542.476,542.66C547.357,557.301 554.555,588.594 552.323,604.218C551.368,610.899 552.323,617.146 552.323,623.797C552.323,624.559 552.631,632.088 552.954,632.007C553.042,631.985 566.731,628.335 566.849,628.218C570.15,624.916 562.428,622.556 562.428,621.902C562.428,613.131 592.032,595.644 595.901,588.429C604.19,572.973 655.668,572.046 659.057,581.482C661.004,586.905 661.43,568.2 662.846,562.535C672.251,524.916 685.601,472.137 728.611,463.535C791.537,450.95 791.193,535.456 787.895,578.324C787.701,580.856 781.243,613.987 782.211,614.955C782.839,615.583 783.113,604.074 783.498,603.817C789.689,599.69 803.385,612.429 810.632,612.429C822.878,612.429 837.452,623.311 847.894,628.849C928.394,671.549 931.17,755.905 897.507,813.346C890.788,824.812 880.821,805.953 877.893,803.61C869.555,796.94 862.929,786.333 854.209,780.424C841.438,771.769 793.516,752.835 787.411,752.835C777.303,752.835 763.552,753.948 753.92,757.158C719.259,768.712 701.088,811.88 695.804,843.582C690.706,874.171 712.291,931.431 726.35,959.549C730.834,968.518 737.349,982.485 742.423,991.366C747.595,1000.42 784.814,1036.91 778.776,1048.98C775.583,1055.37 747.767,1056.05 741.791,1057.05C724.569,1059.92 712.878,1078.37 694.735,1073.18C686.928,1070.95 674.883,1053.9 667.267,1051.36C663.65,1050.16 663.772,1061.25 635.689,1069.68C619.939,1074.4 605.793,1080.91 590.217,1086.1C575.558,1090.99 555.652,1089.49 543.481,1095.57" style="fill:rgb(102,204,165);stroke:rgb(102,204,165);stroke-width:11.38px;"/>
            <path d="M1157.75,861.722C1148.87,884.249 1065.68,906.893 1051.9,934.435C1049.55,939.148 1082.92,1012.1 1086.7,1027.23C1087.94,1032.19 1090.92,1041.99 1090.92,1041.99L1090.92,1035.66C1090.92,1026.01 1090.5,1009.94 1101.46,1007.19C1116.7,1003.38 1135,1009.3 1149.97,1009.3C1176.76,1009.3 1206.9,1005.09 1233.27,999.812C1238.43,998.781 1237.46,999.288 1242.76,998.758C1263.52,996.682 1294.77,1000.05 1314.47,993.485C1315.45,993.156 1311.07,991.69 1311.46,992.862C1315.09,1003.75 1351.8,1048.75 1344.81,1055.74C1333.84,1066.71 1315.33,1085.37 1302.87,1094.71C1283.81,1109.01 1227.11,1151.76 1233.27,1162.2C1252.09,1194.08 1261.46,1203.7 1277.91,1233.33C1291.69,1258.13 1323.12,1310.05 1341.05,1331.57C1360.97,1355.47 1381.56,1403.9 1403.93,1426.27C1405.61,1427.95 1413.61,1420.26 1414.64,1419.49C1430.32,1407.73 1446.51,1397.16 1462.09,1384.69C1462.78,1384.14 1485.29,1366.4 1485.29,1369.93C1485.29,1377.72 1476.87,1387.71 1475.8,1396.29C1474.27,1408.57 1468.76,1549.23 1471.64,1552.12C1472.05,1552.52 1526.8,1550.42 1547.69,1550.42C1612.94,1550.42 1674.72,1549.19 1740.47,1549.19C1757,1549.19 1797.92,1545.95 1814,1551.31C1815.96,1551.96 1792.81,1397.41 1788.93,1379.34C1774.42,1311.62 1752.17,1255.39 1729.07,1189.91C1718.72,1160.61 1703.02,1136.18 1687.75,1108.42C1663.97,1065.19 1642.8,1016.65 1613.24,977.246C1584.23,938.558 1547.68,908.16 1503.22,885.93C1466.93,867.785 1422.05,845.161 1382.26,836.222C1350.88,829.173 1324.47,835.486 1295.49,825.825C1294.82,825.603 1292.13,823.911 1291.27,824.771C1285.63,830.406 1265.44,854.665 1247.7,860.579C1228.99,866.814 1209.49,883.668 1189.37,878.641C1179.47,876.164 1164.84,879.932 1161.57,870.113C1160.46,866.778 1149.62,863.786 1153.13,863.786" style="fill:rgb(249,182,237);stroke:rgb(249,182,237);stroke-width:11.38px;"/>
            <path d="M915.258,1461.04C914.069,1459.99 911.764,1488.88 910.084,1495.6C907.445,1506.16 894.494,1548.68 907.249,1552.3C917.942,1555.33 946.649,1547.88 954.494,1553.24C956.333,1554.5 961.108,1554.53 961.108,1552.3C961.108,1544.61 932.81,1506.32 932.81,1496.61" style="fill:rgb(249,182,237);stroke:rgb(249,182,237);stroke-width:11.38px;"/>
            <path d="M920.279,797.952C921.1,793.645 917.847,805.438 916.928,807.275C914.298,812.537 898.094,833.968 891.955,830.899C884.206,827.024 878.536,815.604 871.031,809.975C867.13,807.049 853.42,793.449 849.346,791.005C815.543,770.722 772.027,741.361 735.421,777.967C708.937,804.451 697.995,835.182 703.1,870.919C703.962,876.948 710.609,892.601 713.092,898.394C724.06,923.987 741.058,975.406 758.079,997.29C764.107,1005.04 763.647,1001.83 779.085,1028.29C802.944,1069.18 819.08,1109.04 835.259,1153.53C846.403,1184.17 855.565,1215.97 860.907,1248.02C862.56,1257.94 860.026,1278.19 867.656,1285.82C869.886,1288.05 906.11,1259 915.578,1255.45C918.755,1254.25 922.126,1252.38 925.028,1250.72C926.515,1249.87 875.756,1270.14 875.756,1279.74C875.756,1281.86 895.266,1275.29 896.68,1274.35C916.567,1261.09 1005.59,1216.39 1027.62,1204.15C1044.11,1194.99 1060.4,1185.22 1076.89,1175.8C1080.11,1173.96 1114.83,1152.57 1115.37,1151.5C1119.08,1144.07 1105.45,1123.87 1102.54,1117.08C1099.32,1109.56 1097.98,1101.09 1095.12,1093.46C1087.23,1072.42 1068.12,1055.07 1068.12,1031.36C1068.12,1023.86 1064.25,1016.47 1061.37,1009.76C1061,1008.9 1055.45,996.938 1056.64,996.938C1058.87,996.938 1066.15,1013.19 1066.77,1014.49C1075.62,1032.99 1089.04,1060.31 1089.04,1081.31C1089.04,1082.43 1089.18,1079.05 1089.04,1077.93C1088.63,1074.64 1087.67,1071.07 1087.02,1067.81C1085.54,1060.42 1082.97,1053.45 1080.94,1046.21C1074.77,1024.16 1060.75,1006.35 1053.94,984.789C1041.83,946.419 1022.99,911.881 1007.37,875.446C1001.27,861.216 985.829,850.697 977.674,837.648C971.31,827.466 933.851,797.826 922.328,797.826" style="fill:rgb(255,195,110);stroke:rgb(255,195,110);stroke-width:11.38px;"/>
            <path d="M462.956,1339.68C461.184,1341.56 460.456,1331.88 458.392,1333.43C445.419,1343.16 432.448,1384.55 425.428,1400.34C395.429,1467.84 386.272,1548.47 452.488,1598.13C468.46,1610.11 486.015,1628.07 507.1,1631.59C566.022,1641.41 622.763,1615.42 672.906,1585.34C688.821,1575.79 705.769,1557.79 718.7,1544.86C736.431,1527.13 749.193,1511.49 762.45,1489.4C779.671,1460.69 797.426,1438.03 804.05,1404.91C809.914,1375.59 792.322,1346.28 762.45,1341.3C753.463,1339.81 744.387,1342.43 735.39,1341.3C724.218,1339.91 714.619,1338.5 703.41,1341.3C699.585,1342.26 674.849,1346.69 672.414,1344.26C667.294,1339.14 665.409,1330.36 656.178,1328.51C638.302,1324.94 618.969,1328 601.073,1329.99C550.64,1335.59 514.485,1376.44 470.2,1395.42C468.735,1396.05 458.256,1400.7 456.916,1399.36C456.452,1398.9 456.916,1398.05 456.916,1397.39C456.916,1385.01 461.218,1371.85 458.884,1359.02C458.051,1354.43 457.9,1349.4 457.9,1344.75C457.9,1342.12 458.392,1334.25 458.392,1336.88" style="fill:rgb(255,195,110);stroke:rgb(255,195,110);stroke-width:11.38px;"/>
        </g>
        <path d="M1091.91,590.99C1091.91,590.99 1061.53,556.547 1086.55,522.329C1104.16,498.241 1185.58,458.008 1251.4,494.171C1317.23,530.334 1302.23,597.211 1302.23,597.211" style="fill:none;stroke:black;stroke-width:10.37px;"/>
        <path d="M1279.87,680.414L1306.57,619.77" style="fill:none;stroke:black;stroke-width:11.38px;"/>
        <path d="M676.556,1336.9C676.556,1336.9 632.975,1276.39 446.889,1402.25" style="fill:none;stroke:black;stroke-width:11.38px;"/>
        <path d="M671.582,1063.35C671.582,1063.35 705.755,1091.65 788.387,1051.88" style="fill:none;stroke:black;stroke-width:11.38px;"/>
        <path d="M750.996,462.937L712.511,802.243" style="fill:none;stroke:black;stroke-width:11.38px;"/>
        <path d="M1156.22,782.124L1158.47,853.804C1158.47,853.804 1157.49,884.39 1212.66,870.005C1267.83,855.619 1292.05,820.491 1292.05,820.491C1292.05,820.491 1279.86,702.253 1279.66,703.037" style="fill:none;stroke:black;stroke-width:10.37px;"/>
        <path d="M703.409,1030.72L671.717,1197.73" style="fill:none;stroke:black;stroke-width:11.38px;"/>
        <path d="M559.62,612.55C559.62,612.55 574.83,584.09 601.103,575.727C624.479,568.286 653.569,572.729 653.569,572.729C653.569,572.729 671.36,445.732 747.852,458.149C824.345,470.567 785.579,594.625 789.781,598.655C793.983,602.684 883.748,595.488 919.278,710.896C942.421,786.068 896.322,818.4 895.282,820.447" style="fill:none;stroke:black;stroke-width:11.38px;"/>
        <path d="M630.927,1199.53L802.565,1080.56" style="fill:none;stroke:black;stroke-width:11.38px;"/>
        <path d="M461.44,1321.37C461.44,1321.37 314.203,1495.13 457.414,1612.01C564.283,1699.24 734.984,1570.95 784.885,1461.94C798.48,1432.25 816.663,1394.14 799.856,1366.5C780.724,1335.04 736.554,1321.69 644.509,1350.6C604.769,1363.08 594.046,1375.42 533.366,1397.85" style="fill:none;stroke:black;stroke-width:11.38px;"/>
        <path d="M768.918,761.125L883.895,911.844" style="fill:none;stroke:black;stroke-width:11.38px;"/>
        <path d="M731.087,783.797L842.279,939.552" style="fill:none;stroke:black;stroke-width:11.38px;"/>
        <path d="M708.624,822.67L801.702,967.758" style="fill:none;stroke:black;stroke-width:11.38px;"/>
        <path d="M761.589,1340.08L585.085,1432.56" style="fill:none;stroke:black;stroke-width:11.38px;"/>
        <path d="M793.95,1363.22L631.676,1487" style="fill:none;stroke:black;stroke-width:11.38px;"/>
        <path d="M806.09,1401.68L679.968,1533.2" style="fill:none;stroke:black;stroke-width:11.38px;"/>
        <path d="M1256.56,614.268C1256.56,614.268 1332.39,579.388 1348.45,634.34C1360.7,676.287 1309.1,700.22 1280.1,702.911" style="fill:none;stroke:black;stroke-width:10.37px;"/>
        <path d="M1103.89,543.071C1103.89,543.071 1063.65,738.588 1119.13,769.209C1174.61,799.83 1252.94,757.898 1264.98,750.516C1272.14,746.124 1254.36,619.05 1257.09,614.579" style="fill:none;stroke:black;stroke-width:10.37px;"/>
        <path d="M1104.34,542.557C1104.34,542.557 1114.85,553.116 1124.62,561.691C1151.28,585.093 1195.85,602.51 1224.64,602.312" style="fill:none;stroke:black;stroke-width:10.37px;"/>
        <path d="M1224.64,602.312L1239.07,704.04" style="fill:none;stroke:black;stroke-width:10.37px;"/>
        <path d="M1239.07,704.04C1239.07,704.04 1175.89,600.739 1091.49,676.009" style="fill:none;stroke:black;stroke-width:10.37px;"/>
        <path d="M1293.17,818.227C1293.17,818.227 1519.68,832.487 1629.57,994.006C1739.46,1155.53 1803.16,1360.28 1816.57,1556.85" style="fill:none;stroke:black;stroke-width:10.37px;"/>
        <path d="M912.005,1448.94C897.683,1558.66 899.607,1555.84 899.607,1555.84C899.708,1555.84 941.71,1555.12 968.173,1555.03" style="fill:none;stroke:black;stroke-width:10.37px;"/>
        <path d="M1242.55,1556.15C1484.74,1556.45 1815.24,1556.65 1815.24,1556.65" style="fill:none;stroke:black;stroke-width:10.37px;"/>
        <path d="M1154.18,1220.65L1386.34,1014.1" style="fill:none;stroke:black;stroke-width:10.37px;"/>
        <path d="M1551.75,1321.51L1305.78,1513.6C1305.78,1513.6 1161.25,1628.02 1067.42,1608.56C995.849,1593.71 947.578,1570.18 889.222,1381.51C830.867,1192.85 843.784,1186.55 807.38,1091.43C770.976,996.304 650.007,881.115 722.722,787.716C795.438,694.318 921.075,854.774 949.358,875.349" style="fill:none;stroke:black;stroke-width:10.37px;"/>
        <path d="M920.583,790.274C920.583,790.274 980.999,809.854 1024.03,892.113C1067.06,974.372 1182.58,1311.42 1182.58,1311.42" style="fill:none;stroke:black;stroke-width:10.37px;"/>
        <path d="M867.62,1298.25L1127.26,1155.82" style="fill:none;stroke:black;stroke-width:10.37px;"/>
        <path d="M1224.22,1164.21L1400.25,1429.03" style="fill:none;stroke:black;stroke-width:10.37px;"/>
        <path d="M1344.93,829.53L1305.28,995.485L1337.54,1053.37" style="fill:none;stroke:black;stroke-width:10.37px;"/>
        <path d="M1122.68,881.156L1091.39,1054.82" style="fill:none;stroke:black;stroke-width:10.37px;"/>
        <path d="M1097.93,1017.99L1302.68,998.401" style="fill:none;stroke:black;stroke-width:10.37px;"/>
        <path d="M1154.44,854.717L1043.62,932.86" style="fill:none;stroke:black;stroke-width:10.37px;"/>
        <path d="M1469.52,1387.46L1468.26,1554.39" style="fill:none;stroke:black;stroke-width:10.37px;"/>
        <path d="M1474.63,1387.8C1474.63,1387.8 1592.58,1413.62 1774.7,1336.93" style="fill:none;stroke:black;stroke-width:10.37px;"/>
        <path d="M717.167,1557.25C717.167,1557.25 817.367,1555.96 817.217,1554.37C817.155,1553.71 833.261,1301.26 839.941,1206.38" style="fill:none;stroke:black;stroke-width:11.38px;"/>
        <path d="M835.816,1202.54C831.121,1202.07 464.014,1201.52 464.014,1201.52L462.601,1385" style="fill:none;stroke:black;stroke-width:11.38px;"/>
        <path d="M1779.61,1330.74C1779.61,1330.74 1841.64,1100.11 1911.86,1123.58C1982.08,1147.06 1779.61,1330.74 1779.61,1330.74Z" style="fill:none;stroke:black;stroke-width:11.38px;"/>
        <path d="M1783.09,1332.49C1783.09,1332.49 2008.7,1217.01 2020.95,1301.99C2033.2,1386.96 1783.09,1332.49 1783.09,1332.49Z" style="fill:none;stroke:black;stroke-width:11.38px;"/>
        <path d="M825.085,1462.77L899.361,1418.84" style="fill:none;stroke:black;stroke-width:11.38px;"/>
        <path d="M549.521,1195.25L487.316,509.09" style="fill:none;stroke:black;stroke-width:11.38px;"/>
        <path d="M542.383,1098.55C542.383,1098.55 292.265,1136.48 284.064,961.624C281.066,897.714 324.483,874.519 334.426,868.349C368.519,847.191 420.292,849.747 420.292,849.747C420.292,849.747 312.9,744.664 358.538,668.501C389.885,616.189 442.708,639.829 442.708,639.829C442.708,639.829 409.344,510.607 489.505,506.928C569.667,503.249 557.402,617.751 557.402,617.751C557.402,617.751 662.208,605.059 686.04,692.309C709.871,779.559 626.19,836.046 626.19,836.046" style="fill:none;stroke:black;stroke-width:11.38px;"/>
        <path d="M626.19,836.046C626.19,836.046 665.68,831.055 697.051,856.741" style="fill:none;stroke:black;stroke-width:11.38px;"/>
        <path d="M541.828,1098.47C541.828,1098.47 706.757,1100.69 734.572,961.862" style="fill:none;stroke:black;stroke-width:11.38px;"/>
        <path d="M1288.07,665.415L1315.91,658.933" style="fill:none;stroke:black;stroke-width:11.38px;"/>
        <path d="M1095.72,600.249C1095.72,600.249 1122.33,590.769 1136.25,603.206C1150.17,615.642 1138.19,648.559 1138.19,648.559" style="fill:none;stroke:black;stroke-width:11.38px;"/>
        <g transform="matrix(0.999959,0.00901206,-0.0068812,0.763523,16.2387,156.044)">
            <path d="M1115.85,697.265C1115.85,697.265 1130.21,724.421 1146.49,695.822" style="fill:none;stroke:black;stroke-width:12.79px;"/>
        </g>
    </g>
</svg>
