<?xml version="1.0" encoding="UTF-8" standalone="no"?>
<!DOCTYPE svg PUBLIC "-//W3C//DTD SVG 1.1//EN" "http://www.w3.org/Graphics/SVG/1.1/DTD/svg11.dtd">
<svg width="100%" height="100%" viewBox="0 0 2048 2048" version="1.1" xmlns="http://www.w3.org/2000/svg" xmlns:xlink="http://www.w3.org/1999/xlink" xml:space="preserve" xmlns:serif="http://www.serif.com/" style="fill-rule:evenodd;clip-rule:evenodd;stroke-linecap:round;stroke-linejoin:round;stroke-miterlimit:1.5;">
    <g>
        <g id="Слой2">
            <path d="M460.997,738.805C462.805,735.754 449.517,724.07 442.097,729.634C437.023,733.44 426.127,758.672 421.499,766.077C399.015,802.052 381.541,839.528 354.951,872.766C346.847,882.896 336.598,893.295 331.712,905.512C331.203,906.784 326.695,916.735 328.543,917.659C330.146,918.461 347.123,899.024 350.197,895.477C358.939,885.39 390.652,854.651 403.013,848.47C406.853,846.55 416.089,840.484 420.443,842.661C422.114,843.496 425.469,850.447 423.083,851.639C419.727,853.318 414.549,850.583 410.936,850.583C409.351,850.583 405.062,849.463 406.182,850.583C414.47,858.871 455.148,873.972 467.977,879.104C515.069,897.94 522.66,917.905 561.461,879.104C566.147,874.418 577.194,869.82 579.947,864.315C583.257,857.695 566.404,845.899 562.518,842.661C540.231,824.088 515.175,805.151 499.667,780.338C494.744,772.462 486.178,767.635 480.653,760.268C480.465,760.017 477.504,757.607 478.012,757.099C496.487,738.624 513.366,717.379 535.053,701.114C546.693,692.384 557.293,694.762 569.912,691.607C570.947,691.348 580.644,684.381 579.419,683.156C572.765,676.503 555.109,680.63 548.257,684.741C526.079,698.048 508.045,714.541 491.744,734.916C485.78,742.371 473.936,745.33 468.505,750.761C465.481,753.785 459.232,743.982 461.639,747.592" style="fill:rgb(102,204,165);stroke:rgb(102,204,165);stroke-width:11.5px;"/>
            <path d="M909.743,1813.87C908.976,1815.33 905.515,1818.12 905.515,1816.47C905.515,1813.77 914.191,1813.72 915.445,1811.21C917.677,1806.75 908.744,1574.29 916.446,1574.59C1024.48,1578.9 1004.18,1575.27 1035.82,1575.27C1130.01,1575.27 1188.64,1579.34 1282.99,1579.34C1297.48,1579.34 1221.31,1580.26 1349.1,1580.44C1352.88,1580.44 1382.98,1574.45 1385.61,1577.08C1388.51,1579.98 1379.82,1817.58 1381.59,1822.89C1382.77,1826.41 1385.61,1842.9 1383.93,1846.26C1381.23,1851.65 1359.42,1848.6 1354.14,1848.6C1324.32,1848.6 1295.28,1852.68 1265.35,1852.68C1169.24,1852.68 1073.88,1849.18 977.949,1849.18C962.142,1849.18 876.62,1855.76 865.793,1850.35C864.996,1849.95 864.841,1846.41 865.209,1845.67C870.056,1835.98 909.873,1815.25 911.941,1819.39" style="fill:rgb(255,195,110);stroke:rgb(255,195,110);stroke-width:11.5px;"/>
            <path d="M1292.21,1005.6C1292.62,1001.69 1292.37,1010.34 1292.23,1011.87C1291.52,1019.65 1290.28,1026.75 1290.28,1034.63C1290.28,1054.11 1288.76,1074.1 1290.28,1093.81C1294.14,1144.05 1292.88,1194.34 1292.88,1244.68C1292.88,1249.94 1291.03,1295.36 1289.63,1296.06C1268.09,1306.83 1199.89,1309.55 1175.17,1306.46C1140.88,1302.18 1104.38,1309.36 1070.47,1304.51C1040.95,1300.3 1009.85,1300.23 980.078,1303.21C963.669,1304.85 940.976,1307.47 924.801,1305.16C915.545,1303.84 899.251,1300.33 890.334,1302.56C884.685,1303.97 885.903,1326.55 885.131,1331.17C883.874,1338.72 873.306,1422.1 877.328,1426.12C882.607,1431.4 900.983,1426.37 907.242,1425.47C931.106,1422.06 958.302,1426.77 982.679,1426.77C1088.15,1426.77 1192.84,1420.92 1298.08,1420.92C1328.41,1420.92 1358.22,1419.62 1388.48,1419.62C1391.76,1419.62 1415.95,1422.06 1416.44,1421.57C1420.1,1417.92 1411.39,1397.32 1409.94,1392.96C1406.43,1382.44 1407.84,1370.62 1406.04,1359.79C1402.59,1339.08 1406.38,1317.97 1403.44,1297.36C1398.7,1264.24 1394.59,1231.18 1390.43,1197.86C1389.95,1194.03 1386.02,1141.42 1385.23,1140.63C1379.45,1134.85 1336.99,1151.57 1329.3,1143.88C1322.22,1136.81 1307.94,1070.88 1302.64,1056.74C1298.9,1046.79 1297.86,1035.9 1296.13,1025.53C1295.45,1021.45 1288.36,1007.36 1290.93,1011.22" style="fill:rgb(249,182,237);stroke:rgb(249,182,237);stroke-width:11.5px;"/>
            <path d="M1135.46,525.824C1132.64,533.944 1090.67,561.413 1078.66,555.413C1072.02,552.088 1060.3,551.413 1055.68,546.793C1038.64,529.753 997.729,504.659 968.05,519.499C954.732,526.158 941.436,529.819 927.827,538.892C898.141,558.683 867.312,612.934 848.816,643.761C837.003,663.449 820.112,681.056 810.029,701.223C801.509,718.264 764.808,654.381 754.721,704.815C747.573,740.555 721.906,772.866 713.061,808.247C711.054,816.274 698.835,835.102 703.005,843.443C709.587,856.607 753.281,865.228 764.777,872.892C787.564,888.083 848.331,906.095 876.829,896.595C893.806,890.936 915.664,861.688 924.954,847.752C932.835,835.93 946.918,823.52 951.53,809.684C957.332,792.279 947.752,770.581 950.812,752.221C953.164,738.108 961.743,726.295 964.459,712.716C968.929,690.366 971.585,663.239 984.571,643.761C989.761,635.976 1008.79,640.17 1016.89,640.17C1049.69,640.17 1081.41,632.268 1114.58,632.268C1119.88,632.268 1157.48,634.384 1161.66,638.568C1169.11,646.016 1186.69,676.205 1190,686.139C1194.02,698.205 1215.02,708.176 1220.88,719.899C1226.16,730.452 1227.04,743.541 1231.66,755.094C1244.2,786.459 1254.62,816.055 1262.55,847.752C1268.43,871.303 1286.59,963.019 1298.46,974.888C1298.58,975.01 1300.43,974.951 1300.61,974.888C1311.27,971.334 1321.54,964.785 1331.5,959.804C1347.39,951.86 1430.04,916.576 1434.93,911.679C1443.42,903.194 1411.69,830.456 1407.64,818.303C1384.48,748.821 1357.72,678.954 1325.04,613.593C1315.01,593.533 1295.99,545.384 1277.63,533.146C1252.39,516.32 1212.49,502.028 1181.38,514.471C1178.37,515.674 1128.07,524.805 1136.13,528.836" style="fill:rgb(249,182,237);stroke:rgb(249,182,237);stroke-width:11.5px;"/>
        </g>
        <g transform="matrix(1,0,0,1,5.03107,4.75869)">
            <path d="M1008.39,435.454C1008.39,435.454 1010.26,447.565 1022.79,439.99" style="fill:none;stroke:black;stroke-width:11.5px;"/>
        </g>
        <path d="M591.124,684.761C591.124,684.761 566.028,660.345 534.902,682.402" style="fill:none;stroke:black;stroke-width:11.5px;"/>
        <path d="M508.495,702.564C496.397,714.617 490.166,718.599 470.8,741.181" style="fill:none;stroke:black;stroke-width:11.5px;"/>
        <path d="M446.447,720.133C446.447,720.133 578.234,853.404 584.561,862.295" style="fill:none;stroke:black;stroke-width:11.5px;"/>
        <path d="M446.447,720.133L319.263,909.524L330.534,920.024L403.352,854.414L526.93,908.965L585.806,864.371" style="fill:none;stroke:black;stroke-width:11.5px;"/>
        <path d="M1127.12,446.762L1140.94,406.249" style="fill:none;stroke:black;stroke-width:11.4px;"/>
        <path d="M757.557,675.372L691.509,843.67" style="fill:none;stroke:black;stroke-width:11.4px;"/>
        <path d="M824.382,712.942C824.382,712.942 649.263,597.772 562.324,615.759C512.555,626.056 491.98,683.527 500.487,696.082C510.027,710.164 526.638,696.089 537.038,679.091" style="fill:none;stroke:black;stroke-width:11.4px;"/>
        <path d="M881.302,1826.8L887.912,1838.27" style="fill:none;stroke:black;stroke-width:11.4px;"/>
        <path d="M951.194,815.004C951.194,815.004 902.609,907.873 859.291,904.847C790.455,900.038 662.767,833.671 634.417,817.243" style="fill:none;stroke:black;stroke-width:11.4px;"/>
        <path d="M1040.95,526.794C1040.95,526.794 971.667,473.298 904.961,550.766C840.157,626.024 804.022,696.119 804.022,696.119" style="fill:none;stroke:black;stroke-width:11.4px;"/>
        <path d="M505.814,742.359C510.39,760.362 522.986,779.785 545.13,797.499C605.696,845.947 652.004,819.435 666.481,766.057C675.754,731.867 677.975,701.75 658.913,687.718C634.097,669.45 588.689,679.256 561.084,701.178" style="fill:none;stroke:black;stroke-width:11.4px;"/>
        <path d="M1000.48,399.569C1000.48,399.569 958.98,371.165 979.123,329.152C999.267,287.139 1040.96,301.38 1040.96,301.38C1040.96,301.38 1052.39,256.727 1096.49,260.68C1140.59,264.634 1160.35,326.424 1160.35,326.424C1160.35,326.424 1253.03,301.228 1258.15,378.274C1263.28,455.321 1202.78,444.05 1202.78,444.05C1202.78,444.05 1208.51,513.684 1131.47,491.641" style="fill:none;stroke:black;stroke-width:11.4px;"/>
        <g>
            <g id="Слой1">
                <path d="M1033.44,317.647C1033.44,317.647 969.1,453.548 1007.12,469.664C1045.14,485.78 1063.23,489.249 1063.23,489.249" style="fill:none;stroke:black;stroke-width:11.4px;"/>
                <path d="M1040.9,486.905L1042.82,527.173" style="fill:none;stroke:black;stroke-width:11.4px;"/>
                <path d="M1129.62,522.464L1126.44,471.167C1126.44,471.167 1182.6,466.68 1176.47,420.335C1170.35,373.99 1127.74,385.295 1113.68,392.133C1113.68,392.133 1032.17,442.515 1033.5,317.967" style="fill:none;stroke:black;stroke-width:11.4px;"/>
                <path d="M1042.67,527.959C1042.67,527.959 1080.31,578.593 1128.86,524.472" style="fill:none;stroke:black;stroke-width:11.4px;"/>
            </g>
        </g>
        <path d="M974.813,636.242L951.228,816.898" style="fill:none;stroke:black;stroke-width:11.4px;"/>
        <path d="M877.275,1300.97L867.376,1432.78L1425.22,1430.11L1392.3,1140.61" style="fill:none;stroke:black;stroke-width:11.4px;"/>
        <path d="M1196.45,632.275C1196.45,632.275 1332.79,1138.18 1332.24,1139.41C1332.24,1139.41 1634.58,1098.88 1637.06,1097.95C1638.79,1097.3 1592.9,1012.25 1486.6,1026.47C1486.6,1026.47 1446.49,911.718 1395.17,774.652C1354.99,667.344 1315.4,551.495 1263.6,516.586C1225.11,490.653 1140.51,517.994 1130.56,522.071" style="fill:none;stroke:black;stroke-width:11.4px;"/>
        <path d="M629.293,680.412L563.271,743.362" style="fill:none;stroke:black;stroke-width:11.4px;"/>
        <path d="M653.659,691.373L587.08,771.318" style="fill:none;stroke:black;stroke-width:11.4px;"/>
        <path d="M670.443,708.901L625.387,787.634" style="fill:none;stroke:black;stroke-width:11.4px;"/>
        <path d="M906.669,1439.25C906.669,1439.25 911.753,1804.28 909.783,1805.77C907.812,1807.27 862.775,1821.48 859.968,1853.29C859.968,1853.29 1392.22,1853.75 1392.74,1851.82C1392.74,1851.82 1393.61,1435.8 1393.98,1430.76" style="fill:none;stroke:black;stroke-width:11.4px;"/>
        <path d="M1136.33,1435.16L1129.97,1804.76C1129.97,1804.76 1079.68,1813.23 1069.1,1850.51" style="fill:none;stroke:black;stroke-width:11.4px;"/>
        <path d="M908.337,1570.62L1392.64,1573.41" style="fill:none;stroke:black;stroke-width:11.4px;"/>
        <path d="M894.572,1817.26L902.629,1831" style="fill:none;stroke:black;stroke-width:11.4px;"/>
        <path d="M1090.62,1826.14L1097.56,1837.61" style="fill:none;stroke:black;stroke-width:11.4px;"/>
        <path d="M1108.22,1814.21L1115.84,1828.18" style="fill:none;stroke:black;stroke-width:11.4px;"/>
        <path d="M1177.8,510.233L1158.38,639.079" style="fill:none;stroke:black;stroke-width:11.4px;"/>
        <path d="M1156.32,640.712L1224.96,742.901" style="fill:none;stroke:black;stroke-width:11.4px;"/>
        <path d="M1158.01,641.694C1158.01,641.694 994.016,642.669 993.864,643.417" style="fill:none;stroke:black;stroke-width:11.4px;"/>
        <path d="M992.514,641.354L1007.51,516.17" style="fill:none;stroke:black;stroke-width:11.4px;"/>
        <path d="M991.462,644.058L961.42,739.321" style="fill:none;stroke:black;stroke-width:11.4px;"/>
        <path d="M1286.65,969.548L1287.54,1296.13" style="fill:none;stroke:black;stroke-width:11.4px;"/>
        <path d="M951.555,815.301L840.43,1298.01L1287.54,1296.41" style="fill:none;stroke:black;stroke-width:11.4px;"/>
        <path d="M1292.38,982.114L1443.87,917.564" style="fill:none;stroke:black;stroke-width:11.4px;"/>
        <path d="M1393.58,1098.14C1393.58,1098.14 1483.53,1084.52 1489.71,1112.78" style="fill:none;stroke:black;stroke-width:11.4px;"/>
        <path d="M1441.09,1072.74C1441.09,1072.74 1530.51,1062.12 1570.21,1106.03" style="fill:none;stroke:black;stroke-width:11.4px;"/>
        <path d="M1466.63,1047.06C1466.63,1047.06 1571.45,1037.32 1601.48,1099.16" style="fill:none;stroke:black;stroke-width:11.4px;"/>
        <path d="M1132.9,436.032L1148.46,428.287" style="fill:none;stroke:black;stroke-width:11.4px;"/>
        <path d="M1015.13,373.018C1015.13,373.018 1042.01,371.635 1020.06,423.751" style="fill:none;stroke:black;stroke-width:11.4px;"/>
        <path d="M486.719,758.075C486.719,758.075 541.875,688.469 565.616,695.744" style="fill:none;stroke:black;stroke-width:11.5px;"/>
    </g>
</svg>
