<svg viewBox="0 0 2048 2048" xmlns="http://www.w3.org/2000/svg" fill-rule="evenodd" clip-rule="evenodd" stroke-linecap="round" stroke-linejoin="round" stroke-miterlimit="1.5"><g stroke-width="11.32"><path d="M728.953 1377.98c.147.68-.533-1.78-1.228-1.7-7.337.81-14.18 1.91-21.649 1.91-15.458 0-26.422-3.05-41.756-2.03-58.893 3.93-116.683-.88-175.832-.88-14.218 0-40.989 12.44-54.305 8-1.803-.6-12.395-4.63-12.735-4.46-3.084 1.55-5.578 47.03-6.367 54.13-3.949 35.54-10.885 71.45-14.13 107.16-2.255 24.79-6.419 52.17-11.85 76.6-1.159 5.22-2.316 44.97-4.584 46.1-5.105 2.56-10.426-2.48-15.282-1.27-14.355 3.59-72.838 44.71-63.038 64.31 4.011 8.02 30.243 8.83 36.895 8 27.131-3.39 42.988-6.09 70.079-6.09 45.016 0 90.069-4.38 134.991-.64 21.425 1.79 36.32.88 57.597 3.92 23.751 3.39 58.303-1.13 82.119 1.84 8.94 1.12 90.06-1.84 94.608-6.39.317-.32 0-2.69 0-3.18 0-15.24 4.676-32.21 4.676-47.43 0-29.08-.722-57.03 4.875-85.02 2.062-10.31-.621-21.71 1.91-31.84 2.011-8.04-.818-50.85 5.731-54.12 8.342-4.17 30.161 51 33.111 59.85 3.942 11.83 13.262 21.06 17.829 32.48 10.982 27.45 23.021 54.96 36.295 81.5 5.6 11.2 15.037 21.36 19.739 33.11 7.555 18.89 12.74 47.13 26.107 60.5 6.575 6.57 35.308-13.84 44.572-18.47 25.399-12.7 54.809-17.49 80.869-28.65 9.55-4.1 56.28-29.93 62.4-29.93" fill="#ffc36e" stroke="#ffc36e"/><path d="M1094.77 1711.16c5.02-1.47 89.56-33.96 92.14-36.55 1.21-1.2-3.39 0-5.09 0-6.76 0-14.24 3-20.38 5.73-14.78 6.57-14.23 12.06 0 5.73 32.4-14.4 65.7-25.61 98.06-39.48 6.22-2.66 26.64-8.06 29.3-13.37 2.56-5.12-6.08-13.66-7.65-17.83-9.14-24.38-20.43-47.04-30.56-70.68-19.53-45.58-41.25-90.68-58.58-136.9-6.13-16.35-17.38-30.57-24.2-46.48-10.81-25.22-17.44-52.71-29.29-76.41-.69-1.38-3.03-.53-3.82 0-10.51 7-24.06 13.5-36.29 16.55-4 1-7.7 2.21-11.47 3.83-15.63 6.7-33.22 8.71-49.03 14.64-41.652 15.62-95.262 27.64-136.103 45.14-16.551 7.1-53.622 25.7-69.562 21.72-9.741-2.44-16.258-13.07-22.923-19.74-14.206-14.21-45.893-23.87-64.948-19.1-2.999.75-8.626-.29-10.825 1.91-3.338 3.33 8.949 18.76 10.188 21.65 8.985 20.96 20.34 40.62 26.743 63.04" fill="#ffc36e" stroke="#ffc36e"/><path d="M677.223 399.716c.979.628-1.5 1.804-2.02 2.844-1.829 3.657-3.2 8.112-4.379 12.04-3.601 12.005-5.294 24.638-9.303 36.666-3.654 10.963-1.693 25.737-2.736 37.214-2.281 25.093-9.974 50.631-7.662 76.068 3.958 43.536 7.593 87.356 21.343 128.605 1.951 5.852 6.267 11.138 8.209 16.965 3.655 10.964 7.18 25.102 13.134 35.025 16.621 27.701 35.531 49.749 55.273 74.427 18.129 22.661 43.387 44.678 68.954 57.461 14.581 7.291 14.825-24.272 17.513-35.024 4.154-16.619 4.823-33.969 8.208-50.895 2.284-11.415-1.915-24.078 0-35.571 2.419-14.515 3.749-32.316 1.642-47.064-1.585-11.099-2.33-43.904 1.095-54.179.344-1.031 1.442-3.417 3.283-2.189 7.755 5.17 5.767 16.165 11.493 21.89 4.47 4.47 32.09 31.892 35.024 37.761 3.515 7.03 18.184 2.985 20.796 8.209 2.882 5.765.905 14.922 2.189 21.343 3.569 17.848 8.642 41.987 20.248 57.462 16.854 22.472 35.078 68.353 68.403 35.024 9.47-9.47 18.69-20.332 28.46-30.099 4.63-4.631 7.98-10.171 11.49-13.681.83-.826 2.74-2.189 2.74-2.189h-3.83c-6.37 0-10.38 3.836-16.96 1.641-15.09-5.029-21.52-17.687-32.294-28.457-21.327-21.327-17.639-85.031-13.681-112.735 3.215-22.503 20.045-69.008 37.765-83.183 11.24-8.993 30.81-14.103 44.32-18.606 4.65-1.548 9.62-3.388 14.23-4.926 5.33-1.775 21.1 5.718 25.18 1.642.99-.997-2.74-37.944-2.74-42.139 0-38.609-15.34-79.394-27.36-115.471-3.05-9.139-6.73-31.546-15.87-36.118-18.71-9.355-55.77 36.574-64.033 50.347-12.388 20.647-19.419 21.077-19.701 20.796-2.665-2.665-.878-16.976-1.642-20.796-2.678-13.39-10.501-31.548-17.512-43.233-30.793-51.321-52.765-112.417-94.675-154.326-6.349-6.349-18.738 14.321-20.249 16.965-13.209 23.116-22.012 48.648-28.457 74.426-14.022 56.091-23.532 113.982-23.532 172.386 0 15.071 3.284 30.006 3.284 44.875 0 1.433 1.141 13.385.547 13.682-2.868 1.434-15.032-12.552-16.418-15.324-11.28-22.56-23.873-42.291-39.95-62.387-10.257-12.822-27.381-19.72-38.855-31.193-5.086-5.087-9.722-12.765-15.323-16.965-.825-.62-2.189-2.189-2.189-2.189s2.13 1.094 3.284 1.094" fill="#66cca5" stroke="#66cca5"/><path d="M1135.47 871.105c-5.29-7.084-14.11 13.074-18.96 17.926-14.64 14.636-25.99 22.124-46 18.122-7.63-1.525-35.03-26.436-39.86-32.465-6.25-7.81-18.22-19.925-27.75-24.69-5.751-2.873-17.003 4.268-24.399 2.788-14.453-2.89-21.232-15.146-32.759-20.91-4.275-2.137-84.357 22.782-94.095 29.275-11.717 7.811-4.222 25.815-14.637 32.759-1.496.997-3.351 2.024-4.879 2.788-1.484.742-2.575-.484-3.485-1.394-9.601-9.601-13.873-7.173-18.122 5.576-4.229 12.686 10.089 27.479 13.94 39.032 7.405 22.216 9.758 61.278 9.758 85.038 0 14.37-4.694 118.16-1.394 124.76 2.306 4.61 65.095.3 75.276-1.39 11.621-1.94 24.162 1.52 35.547 2.78 21.083 2.35 42.865-2.47 64.119-.69 23.7 1.97 50.04 3.77 73.89 1.39 11.86-1.18 56.24-6.03 66.91-.7 6.74 3.37-2.98 81.12-5.58 94.1-.64 3.21-7.18 22.09-4.18 25.09 1.43 1.43 4.71-1.39 5.58-2.09 10.76-8.61 20.71-19.16 34.85-22.3 9.04-2.01 18.24-3.59 27.18-5.58 4.02-.89 7.92-1.67 11.85-2.79 1-.28 3.72-.93 2.79-1.39-10.3-5.15-38.36 12.16-46.7 18.12-4.52 3.23-8.97 6.58-13.94 9.06-.77.39-6.52 2.66-6.27 2.79 9.54 4.77 49.76-14.65 61.33-18.12 34.03-10.21 69-25.87 102.46-38.04 18.69-6.8 38.18-9.27 57.85-12.84 55.11-10.02 97.58-18.13 154.04-18.13 2.54 0 56.37.09 57.85-1.39 7.29-7.29 2.33-50.17-.7-59.25-6.14-18.44-8.31-29.79-10.41-48.66-2.52-22.7-10.72-62.61-20.95-83.069-10.3-20.607-21.04-41.387-31.37-62.033-3.33-6.674-2.16-15.038-6.27-21.607-2.62-4.196-19.47-32.905-22.7-36.939-44.23-55.289-77.87-72.491-155.73-72.491-19.23 0-49.54-4.844-66.22 6.273-11.52 7.682-22.54 62.91-44.6 79.459-12.51 9.379-44.37 40.201-62.04 31.365-9.2-4.6-22.16-15.846-28.57-24.395-2.3-3.067-10.84-20.234-5.58-16.728m335.23 702.085c2.61-5.44 31.92-16.15 38.58-17.57 31.83-6.82 60.09-27.22 90.17-38.5 4.43-1.66 26.04-16.35 26.9-16.35 2.22 0-1.74 4.14-2.11 6.33-.94 5.63-1.29 12.2-1.58 17.93-.58 11.51 1.58 24.51 1.58 34.81v1.05c-4.69 4.7-22.32 1-27.95.53-17.54-1.46-35.36-.26-52.74 2.64-23.38 3.9-45.86 6.85-69.61 6.85" fill="#f9b6ed" stroke="#f9b6ed"/></g><path d="M1336.5 1623.19c.87-.24 21.81 98.53 21.81 98.53l424.35-.29s.25-29.3-12.73-48.98c-24.55-37.24-72-64.08-142.46-80.17l-4.01-100.87m-803.713-221.62s94.491-59 136.643-24.05c42.151 34.95 8.529 88.76 8.529 88.76m53.301-602.635s14.79 19.262 27.56-.453m146.53-13.764s18.97-57.507 19.21-58.36m-150.43-67.385s-17 34.797-65.291 47.046m197.051 181.77s187.93-91.962 293.91 29.914c105.99 121.876 105.86 331.487 107.63 332.457M972.817 850.892s-58.046-54.368-61.28-123.857m-62.074-59.243c19.943 27.921 34.174 41.077 57.954 62.235 0 0 198.003-258.361-46.423-540.945 0 0-93.278 92.386-67.49 327.299m31.745 640.709s319.651-.81 318.671.53c-.98 1.34-10.91 118.12-11.77 120.41" fill="none" stroke="#000" stroke-width="11.32"/><path d="M1290.33 1025.73l12.07 195.08" fill="none" stroke="#000" stroke-width="11.41"/><path d="M416.211 1374.45l313.317-2.82" fill="none" stroke="#000" stroke-width="11.36"/><path d="M1140.37 1277.75l153.56 356.48" fill="none" stroke="#000" stroke-width="11.31"/><path d="M813.813 1364.62c8.844-125.58 11.515-196.29 14.582-270.24 6.672-160.856-32.266-283.85-176.955-276.337-154.401 8.016-197.461 240.037-225.027 459.877-25.004 199.41-44.345 371.61-47.73 372.89-7.116 2.7-77.156 24.91-74.971 84.77 0 0 274.942-.6 481.394-1.37 0 0 5.552-86.84 15.381-223.93" fill="none" stroke="#000" stroke-width="11.41"/><path d="M935.078 1783.447c-2.32-.492 464.255-185.942 594.262-242.814 147.498-64.523 240.972-153.441 170.787-280.19-74.895-135.259-302.308-72.24-511.98-.637-190.187 64.95-353.436 123.06-356.07 120.579-5.547-5.212-56.214-58.426-109.057-30.219l212.058 433.281z" fill="none" stroke="#000" stroke-width="11.41"/><path d="M1125.53 547.563s-129.344-22.14-134.31 118.663c-4.513 127.939 32.84 125.054 119.66 102.633" fill="none" stroke="#000" stroke-width="11.31"/><path d="M1081.98 779.087l-.79 59.326s19.6 21.491 57.23 18.957c37.63-2.535 51.48-34.198 51.48-34.198l-.45-78.925s78.7-9.857 68.85-68.344c-8.6-51.022-73.04-34.681-73.04-34.681l27.91-2.956s9.03-56.944-62.13-86.028" fill="none" stroke="#000" stroke-width="11.36"/><path d="M1150.07 552.094s.7-33.091 42-39.321c41.31-6.23 88.35 46.171 169.45 19.626 81.09-26.545 71.59-71.808 106.06-85.408 32.29-12.741 59.56 13.314 98.71 1.745 39.14-11.57 44.93-72.185 35.93-96.828s-25.8-47.808-60.65-46.402c-34.85 1.407-43.02 26.192-66.45 31.675-23.42 5.484-53.41-12.127-89.93 10.429-51.65 31.902-21.94 90.887-96.48 117.442-74.55 26.556-107.44 7.236-137.1 31.72-18.11 14.961-25.91 49.639-25.91 49.639m-451.602-157.61l238.689 764.859m-49.806-954.337l80.207 956.307m-29.542-175.158l-33.44 174.038m176.104-808.96l-45.52 247.076m-20.114 87.68l-42.772 472.534M830.937 888.102s46.481-130.708 6.637-273.867c-22.463-80.708-89.211-169.604-165.794-230.87 0 0-123.418 345.686 159.157 504.737zm145.771-37.329s45.062-1.839 81.812-67.549m-79.567-371.99s46.227-75.182 78.367-69.775c20.87 3.512 58.1 139.096 52.84 202.563m-49.03 48.079s35.56 110.169 123.21 49.515m-104.17 196.593s-25.48-8.993-52.63-13.303m-77.919-.638c-30.909 4.408-75.366 16.517-108.136 34.864m-25.934 20.936c-5.045 3.979-10.164 10.742-15.18 15.22M792 1353.12l-20.484 19.26m39.326-5.44l-23.855 22.46m-452.501 292.11l2.377 23.4m21.136-40.53l5.3 30.16m766.681-832.39s49.12 121.797 138.18-65.335" fill="none" stroke="#000" stroke-width="11.32"/><path d="M1128.25 865.528c-4.49 6.559-19.04 34.05-45.14 33.748-18.3-.211-40.97-16.037-78.07-59.245m194.89-139.942l22.79-17.09m-228.45-23.38s31.96-9.161 34.06 7.8c2.13 17.24 2.18 38.793 2.18 38.793M924.757 1235.71l-89.075 73.9m121.115-59.84l-98.571 88.17m116.272-61.67l-91.132 81.07m602.824 320.27s163.53-8.68 170.17 43.24m-92.32-67.47s149.87.12 152.93 66.88m-128.65-97.64s156.3 6.79 163.62 97.42m-310.41-141.68s182.51-15.45 182.5-15.18" fill="none" stroke="#000" stroke-width="11.32"/></svg>