<svg viewBox="0 0 2048 2048" xmlns="http://www.w3.org/2000/svg" fill-rule="evenodd" clip-rule="evenodd" stroke-linecap="round" stroke-linejoin="round" stroke-miterlimit="1.5"><g stroke-width="11.38"><path d="M539.976 1097.26c-2.058-3.05-15.156 1.47-19.863 1.47-19.154 0-38.543-4.42-57.472-6.32-66.043-6.6-126.461-17.47-162.311-80.2-22.272-38.978-7.966-96.564 29.052-130.105 14.838-13.444 36.487-21.622 59.95-24.229 8.358-.929 17.795-1.093 24.859-4.625 1.066-.533.728 10.637 8.37-3.934 1.314-2.504 12.85 3.64 11.028 1.21-3.86-5.146-9.427-8.919-12.631-14.526-.376-.659-.886-1.235-1.263-1.894-.467-.818-.66-1.803-1.263-2.526-16.668-20.002-60.5-76.358-64.704-101.584-4.602-27.611 13.177-84.477 47.505-88.768 14.726-1.84 32.892-.524 44.43-4.37.831-.277-.558 1.115 0 0 10.812-21.624-18.998-102.758 24.08-121.22 28.673-12.289 62.804-2.765 72.733 27.021 4.881 14.641 12.079 45.934 9.847 61.558-.955 6.681 0 12.928 0 19.579 0 .762.308 8.291.631 8.21.088-.022 13.777-3.672 13.895-3.789 3.301-3.302-4.421-5.662-4.421-6.316 0-8.771 29.604-26.258 33.473-33.473 8.289-15.456 59.767-16.383 63.156-6.947 1.947 5.423 2.373-13.282 3.789-18.947 9.405-37.619 22.755-90.398 65.765-99 62.926-12.585 62.582 71.921 59.284 114.789-.194 2.532-6.652 35.663-5.684 36.631.628.628.902-10.881 1.287-11.138 6.191-4.127 19.887 8.612 27.134 8.612 12.246 0 26.82 10.882 37.262 16.42 80.5 42.7 83.276 127.056 49.613 184.497-6.719 11.466-16.686-7.393-19.614-9.736-8.338-6.67-14.964-17.277-23.684-23.186-12.771-8.655-60.693-27.589-66.798-27.589-10.108 0-23.859 1.113-33.491 4.323-34.661 11.554-52.832 54.722-58.116 86.424-5.098 30.589 16.487 87.849 30.546 115.967 4.484 8.969 10.999 22.936 16.073 31.817 5.172 9.054 42.391 45.544 36.353 57.614-3.193 6.39-31.009 7.07-36.985 8.07-17.222 2.87-28.913 21.32-47.056 16.13-7.807-2.23-19.852-19.28-27.468-21.82-3.617-1.2-3.495 9.89-31.578 18.32-15.75 4.72-29.896 11.23-45.472 16.42-14.659 4.89-34.565 3.39-46.736 9.47" fill="#66cca5" stroke="#66cca5"/><path d="M1157.75 861.722c-8.88 22.527-92.07 45.171-105.85 72.713-2.35 4.713 31.02 77.665 34.8 92.795 1.24 4.96 4.22 14.76 4.22 14.76v-6.33c0-9.65-.42-25.72 10.54-28.47 15.24-3.81 33.54 2.11 48.51 2.11 26.79 0 56.93-4.21 83.3-9.488 5.16-1.031 4.19-.524 9.49-1.054 20.76-2.076 52.01 1.292 71.71-5.273.98-.329-3.4-1.795-3.01-.623 3.63 10.888 40.34 55.888 33.35 62.878-10.97 10.97-29.48 29.63-41.94 38.97-19.06 14.3-75.76 57.05-69.6 67.49 18.82 31.88 28.19 41.5 44.64 71.13 13.78 24.8 45.21 76.72 63.14 98.24 19.92 23.9 40.51 72.33 62.88 94.7 1.68 1.68 9.68-6.01 10.71-6.78 15.68-11.76 31.87-22.33 47.45-34.8.69-.55 23.2-18.29 23.2-14.76 0 7.79-8.42 17.78-9.49 26.36-1.53 12.28-7.04 152.94-4.16 155.83.41.4 55.16-1.7 76.05-1.7 65.25 0 127.03-1.23 192.78-1.23 16.53 0 57.45-3.24 73.53 2.12 1.96.65-21.19-153.9-25.07-171.97-14.51-67.72-36.76-123.95-59.86-189.43-10.35-29.3-26.05-53.73-41.32-81.49-23.78-43.23-44.95-91.77-74.51-131.174-29.01-38.688-65.56-69.086-110.02-91.316-36.29-18.145-81.17-40.769-120.96-49.708-31.38-7.049-57.79-.736-86.77-10.397-.67-.222-3.36-1.914-4.22-1.054-5.64 5.635-25.83 29.894-43.57 35.808-18.71 6.235-38.21 23.089-58.33 18.062-9.9-2.477-24.53 1.291-27.8-8.528-1.11-3.335-11.95-6.327-8.44-6.327M915.258 1461.04c-1.189-1.05-3.494 27.84-5.174 34.56-2.639 10.56-15.59 53.08-2.835 56.7 10.693 3.03 39.4-4.42 47.245.94 1.839 1.26 6.614 1.29 6.614-.94 0-7.69-28.298-45.98-28.298-55.69" fill="#f9b6ed" stroke="#f9b6ed"/><path d="M920.279 797.952c.821-4.307-2.432 7.486-3.351 9.323-2.63 5.262-18.834 26.693-24.973 23.624-7.749-3.875-13.419-15.295-20.924-20.924-3.901-2.926-17.611-16.526-21.685-18.97-33.803-20.283-77.319-49.644-113.925-13.038-26.484 26.484-37.426 57.215-32.321 92.952.862 6.029 7.509 21.682 9.992 27.475 10.968 25.593 27.966 77.012 44.987 98.896 6.028 7.75 5.568 4.54 21.006 31 23.859 40.89 39.995 80.75 56.174 125.24 11.144 30.64 20.306 62.44 25.648 94.49 1.653 9.92-.881 30.17 6.749 37.8 2.23 2.23 38.454-26.82 47.922-30.37 3.177-1.2 6.548-3.07 9.45-4.73 1.487-.85-49.272 19.42-49.272 29.02 0 2.12 19.51-4.45 20.924-5.39 19.887-13.26 108.91-57.96 130.94-70.2 16.49-9.16 32.78-18.93 49.27-28.35 3.22-1.84 37.94-23.23 38.48-24.3 3.71-7.43-9.92-27.63-12.83-34.42-3.22-7.52-4.56-15.99-7.42-23.62-7.89-21.04-27-38.39-27-62.1 0-7.5-3.87-14.89-6.75-21.6-.37-.86-5.92-12.822-4.73-12.822 2.23 0 9.51 16.252 10.13 17.552 8.85 18.5 22.27 45.82 22.27 66.82 0 1.12.14-2.26 0-3.38-.41-3.29-1.37-6.86-2.02-10.12-1.48-7.39-4.05-14.36-6.08-21.6-6.17-22.05-20.19-39.86-27-61.421-12.11-38.37-30.95-72.908-46.57-109.343-6.1-14.23-21.541-24.749-29.696-37.798-6.364-10.182-43.823-39.822-55.346-39.822M462.956 1339.68c-1.772 1.88-2.5-7.8-4.564-6.25-12.973 9.73-25.944 51.12-32.964 66.91-29.999 67.5-39.156 148.13 27.06 197.79 15.972 11.98 33.527 29.94 54.612 33.46 58.922 9.82 115.663-16.17 165.806-46.25 15.915-9.55 32.863-27.55 45.794-40.48 17.731-17.73 30.493-33.37 43.75-55.46 17.221-28.71 34.976-51.37 41.6-84.49 5.864-29.32-11.728-58.63-41.6-63.61-8.987-1.49-18.063 1.13-27.06 0-11.172-1.39-20.771-2.8-31.98 0-3.825.96-28.561 5.39-30.996 2.96-5.12-5.12-7.005-13.9-16.236-15.75-17.876-3.57-37.209-.51-55.105 1.48-50.433 5.6-86.588 46.45-130.873 65.43-1.465.63-11.944 5.28-13.284 3.94-.464-.46 0-1.31 0-1.97 0-12.38 4.302-25.54 1.968-38.37-.833-4.59-.984-9.62-.984-14.27 0-2.63.492-10.5.492-7.87" fill="#ffc36e" stroke="#ffc36e"/></g><path d="M1091.91 590.99s-30.38-34.443-5.36-68.661c17.61-24.088 99.03-64.321 164.85-28.158 65.83 36.163 50.83 103.04 50.83 103.04" fill="none" stroke="#000" stroke-width="10.37"/><path d="M1279.87 680.414l26.7-60.644M676.556 1336.9s-43.581-60.51-229.667 65.35m224.693-338.9s34.173 28.3 116.805-11.47m-37.391-588.943l-38.485 339.306" fill="none" stroke="#000" stroke-width="11.38"/><path d="M1156.22 782.124l2.25 71.68s-.98 30.586 54.19 16.201c55.17-14.386 79.39-49.514 79.39-49.514s-12.19-118.238-12.39-117.454" fill="none" stroke="#000" stroke-width="10.37"/><path d="M703.409 1030.72l-31.692 167.01M559.62 612.55s15.21-28.46 41.483-36.823c23.376-7.441 52.466-2.998 52.466-2.998s17.791-126.997 94.283-114.58c76.493 12.418 37.727 136.476 41.929 140.506 4.202 4.029 93.967-3.167 129.497 112.241 23.143 75.172-22.956 107.504-23.996 109.551M630.927 1199.53l171.638-118.97M461.44 1321.37s-147.237 173.76-4.026 290.64c106.869 87.23 277.57-41.06 327.471-150.07 13.595-29.69 31.778-67.8 14.971-95.44-19.132-31.46-63.302-44.81-155.347-15.9-39.74 12.48-50.463 24.82-111.143 47.25m235.552-636.725l114.977 150.719M731.087 783.797l111.192 155.755M708.624 822.67l93.078 145.088m-40.113 372.322l-176.504 92.48m208.865-69.34L631.676 1487m174.414-85.32L679.968 1533.2" fill="none" stroke="#000" stroke-width="11.38"/><path d="M1256.56 614.268s75.83-34.88 91.89 20.072c12.25 41.947-39.35 65.88-68.35 68.571" fill="none" stroke="#000" stroke-width="10.37"/><path d="M1103.89 543.071s-40.24 195.517 15.24 226.138c55.48 30.621 133.81-11.311 145.85-18.693 7.16-4.392-10.62-131.466-7.89-135.937" fill="none" stroke="#000" stroke-width="10.37"/><path d="M1104.34 542.557s10.51 10.559 20.28 19.134c26.66 23.402 71.23 40.819 100.02 40.621m0 0l14.43 101.728m0 0s-63.18-103.301-147.58-28.031m201.68 142.218s226.51 14.26 336.4 175.779c109.89 161.524 173.59 366.274 187 562.844m-904.565-107.91c-14.322 109.72-12.398 106.9-12.398 106.9.101 0 42.103-.72 68.566-.81m274.377 1.12c242.19.3 572.69.5 572.69.5m-661.06-336l232.16-206.55" fill="none" stroke="#000" stroke-width="10.37"/><path d="M1551.75 1321.51l-245.97 192.09s-144.53 114.42-238.36 94.96c-71.571-14.85-119.842-38.38-178.198-227.05-58.355-188.66-45.438-194.96-81.842-290.08-36.404-95.126-157.373-210.315-84.658-303.714 72.716-93.398 198.353 67.058 226.636 87.633" fill="none" stroke="#000" stroke-width="10.37"/><path d="M920.583 790.274s60.416 19.58 103.447 101.839c43.03 82.259 158.55 419.307 158.55 419.307m-314.96-13.17l259.64-142.43m96.96 8.39l176.03 264.82m-55.32-599.5l-39.65 165.955 32.26 57.885m-214.86-172.214l-31.29 173.664m6.54-36.83l204.75-19.589m-148.24-143.684l-110.82 78.143m425.9 454.6l-1.26 166.93m6.37-166.59s117.95 25.82 300.07-50.87" fill="none" stroke="#000" stroke-width="10.37"/><path d="M717.167 1557.25s100.2-1.29 100.05-2.88c-.062-.66 16.044-253.11 22.724-347.99m-4.125-3.84c-4.695-.47-371.802-1.02-371.802-1.02L462.601 1385m1317.009-54.26s62.03-230.63 132.25-207.16c70.22 23.48-132.25 207.16-132.25 207.16zm3.48 1.75s225.61-115.48 237.86-30.5c12.25 84.97-237.86 30.5-237.86 30.5zm-958.005 130.28l74.276-43.93m-349.84-223.59l-62.205-686.16m55.067 589.46s-250.118 37.93-258.319-136.926c-2.998-63.91 40.419-87.105 50.362-93.275 34.093-21.158 85.866-18.602 85.866-18.602S312.9 744.664 358.538 668.501c31.347-52.312 84.17-28.672 84.17-28.672s-33.364-129.222 46.797-132.901c80.162-3.679 67.897 110.823 67.897 110.823s104.806-12.692 128.638 74.558c23.831 87.25-59.85 143.737-59.85 143.737m0 0s39.49-4.991 70.861 20.695M541.828 1098.47s164.929 2.22 192.744-136.608m553.498-296.447l27.84-6.482m-220.19-58.684s26.61-9.48 40.53 2.957c13.92 12.436 1.94 45.353 1.94 45.353" fill="none" stroke="#000" stroke-width="11.38"/><path d="M1115.85 697.265s14.36 27.156 30.64-1.443" fill="none" stroke="#000" stroke-width="12.79" transform="matrix(.99996 .00901 -.00688 .76352 16.239 156.044)"/></svg>