<svg viewBox="0 0 2048 2048" xmlns="http://www.w3.org/2000/svg" fill-rule="evenodd" clip-rule="evenodd" stroke-linecap="round" stroke-linejoin="round" stroke-miterlimit="1.5"><g stroke-width="11.5"><path d="M460.997 738.805c1.808-3.051-11.48-14.735-18.9-9.171-5.074 3.806-15.97 29.038-20.598 36.443-22.484 35.975-39.958 73.451-66.548 106.689-8.104 10.13-18.353 20.529-23.239 32.746-.509 1.272-5.017 11.223-3.169 12.147 1.603.802 18.58-18.635 21.654-22.182 8.742-10.087 40.455-40.826 52.816-47.007 3.84-1.92 13.076-7.986 17.43-5.809 1.671.835 5.026 7.786 2.64 8.978-3.356 1.679-8.534-1.056-12.147-1.056-1.585 0-5.874-1.12-4.754 0 8.288 8.288 48.966 23.389 61.795 28.521 47.092 18.836 54.683 38.801 93.484 0 4.686-4.686 15.733-9.284 18.486-14.789 3.31-6.62-13.543-18.416-17.429-21.654-22.287-18.573-47.343-37.51-62.851-62.323-4.923-7.876-13.489-12.703-19.014-20.07-.188-.251-3.149-2.661-2.641-3.169 18.475-18.475 35.354-39.72 57.041-55.985 11.64-8.73 22.24-6.352 34.859-9.507 1.035-.259 10.732-7.226 9.507-8.451-6.654-6.653-24.31-2.526-31.162 1.585-22.178 13.307-40.212 29.8-56.513 50.175-5.964 7.455-17.808 10.414-23.239 15.845-3.024 3.024-9.273-6.779-6.866-3.169" fill="#66cca5" stroke="#66cca5"/><path d="M909.743 1813.87c-.767 1.46-4.228 4.25-4.228 2.6 0-2.7 8.676-2.75 9.93-5.26 2.232-4.46-6.701-236.92 1.001-236.62 108.034 4.31 87.734.68 119.374.68 94.19 0 152.82 4.07 247.17 4.07 14.49 0-61.68.92 66.11 1.1 3.78 0 33.88-5.99 36.51-3.36 2.9 2.9-5.79 240.5-4.02 245.81 1.18 3.52 4.02 20.01 2.34 23.37-2.7 5.39-24.51 2.34-29.79 2.34-29.82 0-58.86 4.08-88.79 4.08-96.11 0-191.47-3.5-287.401-3.5-15.807 0-101.329 6.58-112.156 1.17-.797-.4-.952-3.94-.584-4.68 4.847-9.69 44.664-30.42 46.732-26.28" fill="#ffc36e" stroke="#ffc36e"/><path d="M1292.21 1005.6c.41-3.91.16 4.74.02 6.27-.71 7.78-1.95 14.88-1.95 22.76 0 19.48-1.52 39.47 0 59.18 3.86 50.24 2.6 100.53 2.6 150.87 0 5.26-1.85 50.68-3.25 51.38-21.54 10.77-89.74 13.49-114.46 10.4-34.29-4.28-70.79 2.9-104.7-1.95-29.52-4.21-60.62-4.28-90.392-1.3-16.409 1.64-39.102 4.26-55.277 1.95-9.256-1.32-25.55-4.83-34.467-2.6-5.649 1.41-4.431 23.99-5.203 28.61-1.257 7.55-11.825 90.93-7.803 94.95 5.279 5.28 23.655.25 29.914-.65 23.864-3.41 51.06 1.3 75.437 1.3 105.471 0 210.161-5.85 315.401-5.85 30.33 0 60.14-1.3 90.4-1.3 3.28 0 27.47 2.44 27.96 1.95 3.66-3.65-5.05-24.25-6.5-28.61-3.51-10.52-2.1-22.34-3.9-33.17-3.45-20.71.34-41.82-2.6-62.43-4.74-33.12-8.85-66.18-13.01-99.5-.48-3.83-4.41-56.44-5.2-57.23-5.78-5.78-48.24 10.94-55.93 3.25-7.08-7.07-21.36-73-26.66-87.14-3.74-9.95-4.78-20.84-6.51-31.21-.68-4.08-7.77-18.17-5.2-14.31m-155.47-485.396c-2.82 8.12-44.79 35.589-56.8 29.589-6.64-3.325-18.36-4-22.98-8.62-17.04-17.04-57.951-42.134-87.63-27.294-13.318 6.659-26.614 10.32-40.223 19.393-29.686 19.791-60.515 74.042-79.011 104.869-11.813 19.688-28.704 37.295-38.787 57.462-8.52 17.041-45.221-46.842-55.308 3.592-7.148 35.74-32.815 68.051-41.66 103.432-2.007 8.027-14.226 26.855-10.056 35.196 6.582 13.164 50.276 21.785 61.772 29.449 22.787 15.191 83.554 33.203 112.052 23.703 16.977-5.659 38.835-34.907 48.125-48.843 7.881-11.822 21.964-24.232 26.576-38.068 5.802-17.405-3.778-39.103-.718-57.463 2.352-14.113 10.931-25.926 13.647-39.505 4.47-22.35 7.126-49.477 20.112-68.955 5.19-7.785 24.219-3.591 32.319-3.591 32.8 0 64.52-7.902 97.69-7.902 5.3 0 42.9 2.116 47.08 6.3 7.45 7.448 25.03 37.637 28.34 47.571 4.02 12.066 25.02 22.037 30.88 33.76 5.28 10.553 6.16 23.642 10.78 35.195 12.54 31.365 22.96 60.961 30.89 92.658 5.88 23.551 24.04 115.267 35.91 127.136.12.122 1.97.063 2.15 0 10.66-3.554 20.93-10.103 30.89-15.084 15.89-7.944 98.54-43.228 103.43-48.125 8.49-8.485-23.24-81.223-27.29-93.376-23.16-69.482-49.92-139.349-82.6-204.71-10.03-20.06-29.05-68.209-47.41-80.447-25.24-16.826-65.14-31.118-96.25-18.675-3.01 1.203-53.31 10.334-45.25 14.365" fill="#f9b6ed" stroke="#f9b6ed"/></g><path d="M1013.421 440.213s1.87 12.11 14.4 4.536M591.124 684.761s-25.096-24.416-56.222-2.359m-26.407 20.162c-12.098 12.053-18.329 16.035-37.695 38.617m-24.353-21.048s131.787 133.271 138.114 142.162M446.447 720.133L319.263 909.524l11.271 10.5 72.818-65.61 123.578 54.551 58.876-44.594" fill="none" stroke="#000" stroke-width="11.5"/><path d="M1127.12 446.762l13.82-40.513M757.557 675.372L691.509 843.67m132.873-130.728s-175.119-115.17-262.058-97.183c-49.769 10.297-70.344 67.768-61.837 80.323 9.54 14.082 26.151.007 36.551-16.991M881.302 1826.8l6.61 11.47m63.282-1023.266s-48.585 92.869-91.903 89.843c-68.836-4.809-196.524-71.176-224.874-87.604m406.533-290.449s-69.283-53.496-135.989 23.972c-64.804 75.258-100.939 145.353-100.939 145.353" fill="none" stroke="#000" stroke-width="11.4"/><path d="M505.814 742.359c4.576 18.003 17.172 37.426 39.316 55.14 60.566 48.448 106.874 21.936 121.351-31.442 9.273-34.19 11.494-64.307-7.568-78.339-24.816-18.268-70.224-8.462-97.829 13.46m439.396-301.609s-41.5-28.404-21.357-70.417c20.144-42.013 61.837-27.772 61.837-27.772s11.43-44.653 55.53-40.7c44.1 3.954 63.86 65.744 63.86 65.744s92.68-25.196 97.8 51.85c5.13 77.047-55.37 65.776-55.37 65.776s5.73 69.634-71.31 47.591" fill="none" stroke="#000" stroke-width="11.4"/><g fill="none" stroke="#000" stroke-width="11.4"><path d="M1033.44 317.647s-64.34 135.901-26.32 152.017c38.02 16.116 56.11 19.585 56.11 19.585m-22.33-2.344l1.92 40.268"/><path d="M1129.62 522.464l-3.18-51.297s56.16-4.487 50.03-50.832c-6.12-46.345-48.73-35.04-62.79-28.202 0 0-81.51 50.382-80.18-74.166m9.17 209.992s37.64 50.634 86.19-3.487"/></g><path d="M974.813 636.242l-23.585 180.656m-73.953 484.072l-9.899 131.81 557.844-2.67-32.92-289.5m-195.85-508.335s136.34 505.905 135.79 507.135c0 0 302.34-40.53 304.82-41.46 1.73-.65-44.16-85.7-150.46-71.48 0 0-40.11-114.752-91.43-251.818-40.18-107.308-79.77-223.157-131.57-258.066-38.49-25.933-123.09 1.408-133.04 5.485M629.293 680.412l-66.022 62.95m90.388-51.989l-66.579 79.945m83.363-62.417l-45.056 78.733m281.282 651.616s5.084 365.03 3.114 366.52c-1.971 1.5-47.008 15.71-49.815 47.52 0 0 532.252.46 532.772-1.47 0 0 .87-416.02 1.24-421.06" fill="none" stroke="#000" stroke-width="11.4"/><path d="M1136.33 1435.16l-6.36 369.6s-50.29 8.47-60.87 45.75m-160.763-279.89l484.303 2.79m-498.068 243.85l8.057 13.74m187.991-4.86l6.94 11.47m10.66-23.4l7.62 13.97m61.96-1317.947l-19.42 128.846m-2.06 1.633l68.64 102.189m-66.95-101.207s-163.994.975-164.146 1.723m-1.35-2.063l14.996-125.184m-16.048 127.888l-30.042 95.263m325.23 230.227l.89 326.582M951.555 815.301L840.43 1298.01l447.11-1.6m4.84-314.296l151.49-64.55m-50.29 180.576s89.95-13.62 96.13 14.64m-48.62-40.04s89.42-10.62 129.12 33.29m-103.58-58.97s104.82-9.74 134.85 52.1M1132.9 436.032l15.56-7.745m-133.33-55.269s26.88-1.383 4.93 50.733" fill="none" stroke="#000" stroke-width="11.4"/><path d="M486.719 758.075s55.156-69.606 78.897-62.331" fill="none" stroke="#000" stroke-width="11.5"/></svg>